<?xml version="1.0" encoding="utf-8"?>
<!-- Generator: Adobe Illustrator 26.3.0, SVG Export Plug-In . SVG Version: 6.00 Build 0)  -->
<svg version="1.1" id="Camada_1" xmlns="http://www.w3.org/2000/svg" xmlns:xlink="http://www.w3.org/1999/xlink" x="0px" y="0px"
	 viewBox="0 0 100 125" style="enable-background:new 0 0 100 125;" xml:space="preserve">
<path d="M71.7,43.9c0-2.9-1-5.8-2.9-8.1c0.6-2.6,0.4-5.3-0.6-7.8c-0.2-0.5-0.6-0.8-1.1-1c-0.7-0.2-3.3-0.7-8.8,2.8
	c-2.3-0.6-4.7-0.9-7.1-0.9c-2.4,0-4.8,0.2-7.1,0.9c-5.5-3.6-8.4-3-9-2.8c-0.5,0.2-0.9,0.5-1.1,1c-1,2.5-1.2,5.2-0.6,7.8
	c-1.9,2.3-2.9,5.2-2.9,8.1c0,11.1,6.3,14.4,12.1,15.6c-0.3,0.7-0.5,1.5-0.6,2.3c0,0.1,0,0.2,0,0.2v3.1c-5.3,0.4-6.4-2.7-6.5-3
	c0-0.1-0.1-0.2-0.1-0.2c-1-2.1-2.8-3.7-5-4.5c-0.9-0.3-1.9,0.2-2.2,1.1s0.2,1.9,1.1,2.2c1.2,0.4,2.2,1.3,2.8,2.4
	c0.7,2.3,3.6,5.9,9.9,5.5v2.9c0,1,0.8,1.8,1.8,1.8s1.8-0.8,1.8-1.8v-9.3c0.1-1,0.6-2,1.3-2.7c0.7-0.7,0.7-1.8,0.1-2.5
	c-0.3-0.3-0.7-0.5-1.1-0.5c-6.1-0.7-11.7-2.7-11.7-12.6c-0.1-2.4,0.8-4.7,2.6-6.4c0.5-0.5,0.6-1.2,0.4-1.9c-0.6-1.7-0.6-3.6-0.1-5.3
	c2.1,0.5,4.2,1.4,5.9,2.8c0.5,0.3,1,0.4,1.5,0.2c2.2-0.7,4.5-1,6.9-0.9c2.3-0.1,4.6,0.3,6.8,0.9c0.5,0.2,1.1,0.1,1.5-0.2
	c1.7-1.3,3.6-2.2,5.7-2.8c0.5,1.8,0.5,3.6-0.1,5.3c-0.2,0.6-0.1,1.2,0.3,1.7c1.7,1.8,2.6,4.1,2.6,6.5c0,9.8-5.9,11.9-11.7,12.6
	c-1,0.1-1.6,1-1.5,1.9c0.1,0.5,0.3,0.9,0.7,1.2c0.6,0.5,1.3,1.8,1.3,4v7.9c0,1,0.8,1.8,1.8,1.8s1.8-0.8,1.8-1.8v-7.9
	c0-1.4-0.2-2.8-0.8-4.1C64.5,58.5,71.7,55.4,71.7,43.9z"/>
</svg>
