<?xml version="1.0" encoding="utf-8"?>
<!-- Generator: Adobe Illustrator 26.3.0, SVG Export Plug-In . SVG Version: 6.00 Build 0)  -->
<svg version="1.1" id="Camada_1" xmlns="http://www.w3.org/2000/svg" xmlns:xlink="http://www.w3.org/1999/xlink" x="0px" y="0px"
	 viewBox="0 0 32 32" style="enable-background:new 0 0 32 32;" xml:space="preserve">
<style type="text/css">
	.st0{fill:#303030;}
	.st1{fill:none;}
	.st2{font-family:'MyriadPro-Regular';}
	.st3{font-size:15.1401px;}
</style>
<g>
	<path class="st0" d="M23.2,27.1c0.3-0.5,0.2-1.1-0.3-1.4c0,0,0,0,0,0l-0.3-0.2c3-0.9,5.2-3.3,5.9-6.4c0.1-0.5-0.2-1.1-0.8-1.2
		c-0.5-0.1-1.1,0.2-1.2,0.8c0,0,0,0,0,0c-0.5,2.4-2.3,4.3-4.7,4.9l0.5-0.8c0.3-0.5,0.2-1.1-0.3-1.4c-0.5-0.3-1.1-0.2-1.4,0.3l0,0
		L19,24.3c0,0,0,0,0,0v0l0,0c0,0.1-0.1,0.1-0.1,0.2c0,0,0,0,0,0.1c0,0,0,0.1,0,0.1c0,0,0,0.1,0,0.1c0,0,0,0,0,0.1c0,0,0,0,0,0.1
		c0,0,0,0,0,0.1c0,0,0,0.1,0,0.1c0,0,0,0,0,0c0.1,0.2,0.2,0.4,0.4,0.6l2.6,1.7C22.3,27.7,22.9,27.6,23.2,27.1z"/>
	<path class="st0" d="M10,3c-0.3,0.5-0.2,1.1,0.3,1.4c0,0,0,0,0,0l0.3,0.2C7.7,5.6,5.4,8,4.8,11c-0.1,0.5,0.2,1.1,0.8,1.2
		c0.5,0.1,1.1-0.2,1.2-0.8c0.5-2.4,2.3-4.3,4.7-4.9l-0.5,0.8c-0.3,0.5-0.2,1.1,0.3,1.4c0.5,0.3,1.1,0.2,1.4-0.3l1.7-2.5c0,0,0,0,0,0
		v0l0,0c0-0.1,0.1-0.1,0.1-0.2c0,0,0,0,0-0.1c0,0,0-0.1,0-0.1c0,0,0-0.1,0-0.1c0,0,0,0,0-0.1c0,0,0,0,0-0.1c0,0,0,0,0-0.1
		c0,0,0-0.1,0-0.1c0,0,0,0,0,0c-0.1-0.2-0.2-0.4-0.4-0.6l-2.6-1.7C11,2.4,10.3,2.6,10,3z"/>
	<rect x="4.5" y="14.5" class="st1" width="10.7" height="13.5"/>
	<text transform="matrix(1 0 0 1 4.479 25.2852)" class="st0 st2 st3">2</text>
	<g>
		<rect x="20.4" y="2.6" class="st1" width="8.9" height="14.2"/>
		<text transform="matrix(1 0 0 1 20.4434 13.3325)" class="st0 st2 st3">1</text>
	</g>
</g>
</svg>
