<?xml version="1.0" encoding="utf-8"?>
<!-- Generator: Adobe Illustrator 26.3.0, SVG Export Plug-In . SVG Version: 6.00 Build 0)  -->
<svg version="1.1" id="Camada_1" xmlns="http://www.w3.org/2000/svg" xmlns:xlink="http://www.w3.org/1999/xlink" x="0px" y="0px"
	 viewBox="0 0 32 32" style="enable-background:new 0 0 32 32;" xml:space="preserve">
<path d="M16,8.9c-4.4,0-8,3.2-8,7.1s3.6,7.1,8,7.1s8-3.2,8-7.1S20.4,8.9,16,8.9z M16,9.5c4,0,7.3,2.9,7.3,6.5S20,22.5,16,22.5
	S8.7,19.6,8.7,16S11.9,9.5,16,9.5z M16,11.7c-0.6,0-1.1,0.4-1.1,0.9c0,0.5,0.4,0.9,1.1,0.9s1-0.4,1-0.9C17,12.1,16.6,11.7,16,11.7z
	 M14.6,14.8v0.6h0.3h0.3v4h-0.3h-0.3V20h0.3h0.3h1.4H17h0.4v-0.6H17h-0.3v-4.6h-0.4h-1.4H14.6z"/>
</svg>
